
##      ## ########     ###    ######## ##     ## 
##  ##  ## ##     ##   ## ##      ##    ##     ## 
##  ##  ## ##     ##  ##   ##     ##    ##     ## 
##  ##  ## ########  ##     ##    ##    ######### 
##  ##  ## ##   ##   #########    ##    ##     ## 
##  ##  ## ##    ##  ##     ##    ##    ##     ## 
 ###  ###  ##     ## ##     ##    ##    ##     ## 


File Name : Fair Game 2010 1080p BRRip H264-Wrath.mp4

File Size
Format : MPEG-4
Format profile : Base Media
Codec ID : isom
File size : 3.85 GiB
Duration : 1h 43mn
Overall bit rate : 5 332 Kbps

Video
ID : 1
Format : AVC
Format/Info : Advanced Video Codec
Format profile : High@L4.1
Format settings, CABAC : Yes
Format settings, ReFrames : 3 frames
Codec ID : avc1
Codec ID/Info : Advanced Video Coding
Duration : 1h 43mn
Bit rate mode : Variable
Bit rate : 4 750 Kbps
Maximum bit rate : 23.5 Mbps
Width : 1 920 pixels
Height : 800 pixels
Display aspect ratio : 2.40:1
Frame rate mode : Constant
Frame rate : 25.000 fps
Resolution : 24 bits
Colorimetry : 4:2:0
Scan type : Progressive
Bits/(Pixel*Frame) : 0.124
Stream size : 3.42 GiB (89%)

Audio #1
ID : 2
Format : AAC
Format/Info : Advanced Audio Codec
Format version : Version 4
Format profile : LC
Format settings, SBR : No
Codec ID : 40
Duration : 1h 43mn
Bit rate mode : Variable
Bit rate : 172 Kbps
Maximum bit rate : 249 Kbps
Channel(s) : 2 channels
Channel positions : L R
Sampling rate : 48.0 KHz
Resolution : 16 bits
Stream size : 127 MiB (3%)

Audio #2
ID : 3
Format : AAC
Format/Info : Advanced Audio Codec
Format version : Version 4
Format profile : LC
Format settings, SBR : No
Codec ID : 40
Duration : 1h 43mn
Bit rate mode : Variable
Bit rate : 408 Kbps
Maximum bit rate : 542 Kbps
Channel(s) : 6 channels
Channel positions : Front: L C R, Rear: L R, LFE
Sampling rate : 48.0 KHz
Resolution : 16 bits
Stream size : 301 MiB (8%)

Language : English


Release Date: 15 October 2010 (Norway) 
Genre: Biography | Drama | Thriller 
Plot: CIA operative Valerie Plame discovers her identity is allegedly leaked by the government as payback for an op-ed article her husband wrote criticizing the Bush administration.
Cast:
Naomi Watts ... Valerie Plame
Sonya Davison ... Chanel Suit
Vanessa Chong ... Tabir Secretary #1
Anand Tiwari ... Hafiz
Stephanie Chai ... Tabir Secretary #2
Michael Kelly ... Jack McAllister
Sean Penn ... Joe Wilson
Ty Burrell ... Fred
Jessica Hecht ... Sue
Norbert Leo Butz ... Steve Norbert
Rebecca Rigg ... Lisa
Brooke Smith ... Diana
Thomas McCarthy ... Jeff (as Tom McCarthy)
Ashley Gerasimovich ... Samantha Wilson
Quinn Broggy ... Trevor Wilson 







================================== 
http://thepiratebay.org/user/hiest
==================================







Screen Shots:
 
http://leetleech.org/images/76363992534579346608.png
 
http://leetleech.org/images/98825416374733017997.png
 
http://leetleech.org/images/78353173768251463636.png
 
http://leetleech.org/images/59111273870344140024.png
 
http://leetleech.org/images/01024263919351792170.png


##      ## ########     ###    ######## ##     ## 
##  ##  ## ##     ##   ## ##      ##    ##     ## 
##  ##  ## ##     ##  ##   ##     ##    ##     ## 
##  ##  ## ########  ##     ##    ##    ######### 
##  ##  ## ##   ##   #########    ##    ##     ## 
##  ##  ## ##    ##  ##     ##    ##    ##     ## 
 ###  ###  ##     ## ##     ##    ##    ##     ## 
